PathFileType  4	(X/Y/Z) C:\Users\antoi\Documents\MyRepositories\mobilecap\ResultsAnalysis
DataRate	CameraRate	NumFrames	NumMarkers	Units	OrigDataRate	OrigDataStartFrame	OrigNumFrames
100.0	100.0	4	51	mm	100.0	36	286
Frame#	Time	r_knee			r_shank_antsup			r_ankle			r_calc			r_5meta			r_toe			L_knee			L_shank_antsup			L_ankle			L_calc			L_5meta			L_toe			r_sh2			r_sh3			r_sh4			L_sh2			L_sh3			r_thigh1			r_thigh2			r_thigh3			r_thigh4			r_thigh5			L_thigh1			L_thigh2			L_thigh3			L_thigh4			r.ASIS			r.PSIS			L.ASIS			L.PSIS			C7			R_Shoulder			L_Shoulder			R_Sternum			L_Sternum			R_humerus			R_elbow_med			R_elbow_lat			R_forearm			R_wrist_radius			R_wrist_ulna			L_humerus			L_elbow_med			L_elbow_lat			L_forearm			L_wrist_radius			L_wrist_ulna			R_HJC			L_HJC			R_HJC_reg			L_HJC_reg			
		X1	Y1	Z1	X2	Y2	Z2	X3	Y3	Z3	X4	Y4	Z4	X5	Y5	Z5	X6	Y6	Z6	X7	Y7	Z7	X8	Y8	Z8	X9	Y9	Z9	X10	Y10	Z10	X11	Y11	Z11	X12	Y12	Z12	X13	Y13	Z13	X14	Y14	Z14	X15	Y15	Z15	X16	Y16	Z16	X17	Y17	Z17	X18	Y18	Z18	X19	Y19	Z19	X20	Y20	Z20	X21	Y21	Z21	X22	Y22	Z22	X23	Y23	Z23	X24	Y24	Z24	X25	Y25	Z25	X26	Y26	Z26	X27	Y27	Z27	X28	Y28	Z28	X29	Y29	Z29	X30	Y30	Z30	X31	Y31	Z31	X32	Y32	Z32	X33	Y33	Z33	X34	Y34	Z34	X35	Y35	Z35	X36	Y36	Z36	X37	Y37	Z37	X38	Y38	Z38	X39	Y39	Z39	X40	Y40	Z40	X41	Y41	Z41	X42	Y42	Z42	X43	Y43	Z43	X44	Y44	Z44	X45	Y45	Z45	X46	Y46	Z46	X47	Y47	Z47	X48	Y48	Z48	X49	Y49	Z49	X50	Y50	Z50	X51	Y51	Z51	

36	0.35000000	-1147.30271	897.68423	-419.85068	-1153.24337	745.67174	-421.45552	-1308.59136	411.16520	-421.63078	-1368.39246	382.31398	-484.31738	-1177.08176	350.89897	-385.78024	-1138.37910	375.10333	-437.87432	-1169.84987	893.15968	-765.32466	-1167.54189	687.08060	-742.16440	-1324.76259	423.82181	-727.81783	-1378.56571	384.71149	-657.35025	-1196.69524	341.99906	-783.98412	-1149.21579	374.63336	-731.30526	-1187.77775	636.66161	-427.96965	-1216.52597	760.56309	-384.38110	-1253.11075	655.81015	-378.19255	-1236.40845	714.95378	-791.64727	-1278.32302	605.05884	-769.91203	-1137.17920	1196.19682	-395.50737	-1110.01781	1086.14282	-397.44722	-1167.21853	1049.41402	-387.03000	-1245.41091	1170.64719	-418.59110	-1219.00521	1055.59181	-407.82968	-1128.40082	1193.25482	-781.85292	-1117.91608	1058.20311	-775.76813	-1238.11322	1188.12439	-784.28384	-1225.61874	1050.77414	-789.11377	-1111.15694	1464.52635	-465.03940	-1295.75630	1511.77293	-544.19023	-1130.62957	1450.57636	-733.27526	-1300.32901	1512.67925	-637.51930	-1170.22390	1989.75819	-613.21245	-1089.51825	1946.62478	-440.60188	-1116.85300	1954.45954	-788.06928	-1035.57400	1891.18441	-587.28320	-1035.75524	1891.41117	-636.14232	-1165.62432	1698.49077	-346.38373	-1278.43994	1609.77040	-383.23344	-1260.10069	1626.74245	-298.57347	-1108.47286	1470.89304	-314.25148	-1046.56945	1403.76868	-333.60616	-1067.07677	1389.33527	-304.91856	-1181.66261	1680.72890	-868.21572	-1295.40167	1620.93190	-836.17425	-1256.69175	1616.12037	-909.41525	-1102.14318	1482.28943	-864.09889	-1048.53312	1438.77162	-833.02474	-1063.44108	1422.57696	-859.59336	-1201.39327	1377.37832	-492.27040	-1218.96443	1372.36614	-688.89951	-1191.68107	1381.36747	-500.13873	-1200.37863	1383.09143	-677.65777	
37	0.36000000	-1145.47119	897.35365	-419.72639	-1151.92862	745.32240	-421.47913	-1308.43800	411.20489	-421.71174	-1368.32628	382.41035	-484.27648	-1177.01829	350.91887	-385.73845	-1138.34663	374.97639	-437.89035	-1168.61110	892.83185	-765.46716	-1166.81643	686.79282	-742.08767	-1324.66633	423.83270	-727.83339	-1378.65947	384.71065	-657.36666	-1196.90994	341.86720	-783.25176	-1149.29261	374.73721	-731.15158	-1186.82626	636.37427	-428.09165	-1215.29269	760.35247	-384.46257	-1251.70478	655.36007	-378.60883	-1235.52362	714.73022	-791.46515	-1277.77636	604.97088	-769.92717	-1136.20550	1196.30277	-395.65477	-1108.64846	1085.76751	-397.79238	-1165.60663	1048.70181	-387.16476	-1244.45576	1169.72480	-418.17909	-1217.53675	1054.76981	-407.59560	-1128.05535	1192.84048	-781.68108	-1117.03216	1057.82498	-775.43641	-1237.68791	1187.42680	-784.57437	-1224.66437	1050.16084	-789.60155	-1110.78376	1463.32980	-465.32793	-1295.02415	1511.95038	-544.24612	-1130.66901	1449.70469	-733.71126	-1299.74985	1512.96773	-637.61672	-1165.65536	1988.73994	-613.56937	-1084.70410	1945.03028	-441.20969	-1112.60546	1953.26740	-788.50381	-1031.38891	1889.34971	-587.77766	-1032.26666	1889.77188	-638.07601	-1162.08606	1697.81786	-346.29025	-1275.67286	1609.45841	-382.43424	-1256.85588	1626.49417	-297.89304	-1104.28165	1471.68804	-314.85355	-1042.10203	1405.09731	-334.56972	-1062.22641	1390.47599	-305.80437	-1178.79868	1679.93653	-868.71102	-1293.00482	1620.59990	-836.95856	-1253.97515	1615.76300	-910.19803	-1098.35045	1483.85993	-863.49844	-1044.43181	1441.08616	-831.64919	-1059.39322	1425.08789	-858.19990	-1201.63859	1376.84327	-492.58120	-1219.49617	1372.10789	-689.19163	-1191.89482	1380.71859	-500.39174	-1200.88412	1382.65384	-677.99978	
38	0.37000000	-1143.47377	897.23760	-419.29588	-1150.53892	744.88832	-421.65455	-1308.25567	411.39197	-421.73705	-1368.23543	382.55631	-484.26716	-1176.97751	350.91504	-385.73153	-1138.30947	374.85628	-437.89128	-1167.37208	892.47819	-765.56800	-1166.08399	686.47224	-742.06092	-1324.57049	423.87034	-727.82335	-1378.73273	384.72632	-657.39066	-1197.29474	341.52397	-781.99866	-1149.34177	374.86511	-730.98362	-1185.81702	636.17953	-428.26005	-1213.87470	760.12583	-384.59260	-1250.35825	655.03314	-378.84148	-1234.61665	714.55296	-791.45620	-1277.19737	604.91983	-770.01031	-1135.62023	1195.96945	-395.37519	-1107.41163	1085.44910	-397.95275	-1163.98012	1047.99333	-387.40279	-1243.51438	1168.84298	-417.63941	-1216.06078	1053.87812	-407.50001	-1127.75220	1192.43971	-781.57663	-1116.22121	1057.47717	-775.12874	-1237.32830	1186.63563	-785.04031	-1223.78104	1049.45632	-789.93787	-1110.40466	1462.14064	-465.69041	-1294.30456	1512.09198	-544.27882	-1130.69510	1448.84731	-734.10181	-1299.17317	1513.22032	-637.68714	-1160.88581	1987.58027	-613.84972	-1079.72359	1943.13375	-441.91765	-1108.25922	1951.95029	-788.99021	-1027.00105	1887.37590	-588.42437	-1029.08827	1888.18045	-641.05106	-1158.41747	1696.93123	-346.37250	-1273.14305	1608.59859	-381.61235	-1253.34046	1626.16048	-297.41057	-1099.96869	1472.37211	-315.47811	-1037.51793	1406.06319	-335.97637	-1057.35242	1391.53381	-306.77155	-1175.75988	1679.14690	-869.44317	-1290.94293	1620.22732	-837.89420	-1251.10986	1615.11308	-910.75183	-1094.46501	1485.24878	-862.92298	-1040.28773	1443.28457	-830.36281	-1055.08484	1427.35628	-856.92722	-1201.84425	1376.29979	-492.88933	-1220.00403	1371.84566	-689.47860	-1192.08162	1380.10084	-500.70404	-1201.33961	1382.24638	-678.32357	
39	0.38000000	-1141.37093	897.06604	-418.93869	-1149.03448	744.42170	-421.81264	-1308.09244	411.63965	-421.70243	-1368.10684	382.79398	-484.32180	-1176.90049	350.90906	-385.74026	-1138.23476	374.76085	-437.88557	-1166.07549	892.11406	-765.60941	-1165.30019	686.03507	-741.97634	-1324.50220	423.91773	-727.79544	-1378.73478	384.74802	-657.37808	-1197.50644	341.36254	-781.25624	-1149.35616	374.99704	-730.85610	-1184.74284	636.05140	-428.39287	-1212.31595	759.87274	-384.79999	-1249.40735	655.19117	-378.72466	-1233.66960	714.36349	-791.54672	-1276.56021	604.88094	-770.10038	-1134.39896	1195.09442	-395.53847	-1106.14342	1085.04802	-398.03751	-1162.47081	1047.32796	-387.55928	-1242.55864	1167.86833	-417.29205	-1214.57280	1052.97472	-407.44541	-1127.47765	1192.07598	-781.48338	-1115.48371	1057.14746	-774.92456	-1237.04397	1185.77322	-785.57172	-1222.97058	1048.60781	-790.06575	-1110.09477	1460.62408	-466.13299	-1293.59032	1512.20733	-544.22164	-1130.92719	1447.47787	-734.47199	-1298.63187	1513.37634	-637.74482	-1155.92114	1986.29274	-614.26368	-1074.63074	1941.23376	-442.55113	-1103.74213	1950.42402	-789.44299	-1022.59836	1885.18030	-589.24965	-1025.39739	1886.22795	-643.04625	-1154.54933	1695.89322	-346.56003	-1270.47657	1607.61273	-380.97017	-1249.62890	1625.77132	-297.14408	-1095.64882	1472.94137	-316.11375	-1032.89537	1406.85188	-337.55138	-1052.45399	1392.48842	-307.88389	-1172.52466	1678.06663	-869.94924	-1288.90148	1619.63669	-838.75800	-1247.98370	1614.35294	-911.39576	-1090.41164	1486.41984	-862.29441	-1035.96877	1445.25057	-829.18984	-1050.34358	1429.21907	-855.87504	-1202.28672	1375.59318	-493.10014	-1220.86485	1371.29757	-689.65363	-1192.52087	1379.32202	-500.98320	-1202.09324	1381.54171	-678.56019	
